<svg width="131" height="56" viewBox="0 0 131 56" fill="none" xmlns="http://www.w3.org/2000/svg"
    class="h-10 lg:h-12 w-auto cursor-pointer">
    <path fill-rule="evenodd" clip-rule="evenodd"
        d="M104.707 24.6244C105.007 23.7865 105.306 22.6432 105.411 21.8053H96.8487L93.6018 34.8143C94.6235 34.8895 96.2381 34.8895 97.2406 34.8143L98.4648 29.8619H102.979C103.295 29.0428 103.579 27.8618 103.702 27.0427H99.1686L99.7837 24.6244H104.707Z"
        fill="white"></path>
    <path fill-rule="evenodd" clip-rule="evenodd"
        d="M114.325 21.8053L112.057 30.8909C111.792 31.9198 110.978 32.053 110.043 32.053C109.011 32.053 108.173 31.9198 108.438 30.8909L110.706 21.8053C109.839 21.7286 107.993 21.7097 107.067 21.8053L104.62 31.5378C103.962 34.1471 106.01 35.0429 109.492 35.0429C112.606 35.0429 114.819 34.1471 115.477 31.5378L117.924 21.8053C117.275 21.7097 115.229 21.7286 114.324 21.8053"
        fill="white"></path>
    <path fill-rule="evenodd" clip-rule="evenodd"
        d="M128.076 33.3063L130.963 21.8053C129.806 21.73 128.639 21.73 127.325 21.8053L125.571 28.7953L123.88 21.8053C122.663 21.73 121.263 21.73 119.988 21.8053L116.722 34.8143C117.837 34.9286 119.218 34.9286 120.361 34.8143L122.071 27.9964L123.726 34.8143C124.455 34.8562 125.169 34.8736 125.888 34.8693C127.943 34.9214 130.999 34.959 130.999 34.959C130.999 34.959 129.358 33.9894 128.074 33.3063"
        fill="white"></path>
    <path
        d="M29.7903 41.7204L29.2241 42.5988C29.0392 42.6162 28.8751 42.6162 28.6992 42.5988L28.3502 41.7204L28.1373 43.4151C27.9244 43.4324 27.5843 43.4324 27.3626 43.4151L27.7425 40.3788C27.9643 40.3615 28.3399 40.3615 28.5528 40.3788L29.0688 41.7349L29.9293 40.3788C30.1467 40.3615 30.5178 40.3615 30.7307 40.3788L30.3507 43.4151C30.1378 43.4324 29.7992 43.4324 29.5774 43.4151L29.7903 41.7204Z"
        fill="#83CE00"></path>
    <path
        d="M31.1403 43.4151L31.5158 40.3788H33.4527C33.4527 40.5612 33.4217 40.8072 33.3758 40.9852H32.2122L32.1398 41.5916H33.2575C33.2575 41.7652 33.2265 42.0156 33.1807 42.1936H32.0673L31.9904 42.8043H33.1541C33.1541 42.9824 33.123 43.2414 33.0772 43.4151H31.1403Z"
        fill="#83CE00"></path>
    <path
        d="M34.7908 41.6799L34.5735 43.4151C34.3339 43.4411 34.0441 43.4411 33.7987 43.4151L34.1787 40.3788C34.4507 40.3615 34.7494 40.3615 35.0111 40.3788L35.6765 42.1531L35.8983 40.3788C36.1747 40.3615 36.4231 40.3615 36.6715 40.3788L36.2915 43.4151C36.0062 43.4324 35.7297 43.4324 35.4443 43.4151L34.7879 41.6799H34.7908Z"
        fill="#83CE00"></path>
    <path
        d="M39.6139 42.648C39.537 43.2631 39.052 43.4686 38.3334 43.4686C37.5454 43.4686 37.053 43.2631 37.1299 42.648L37.3206 41.1372C37.3975 40.5264 37.8825 40.3209 38.5966 40.3209C39.3891 40.3209 39.877 40.5264 39.8002 41.1372L39.6139 42.648ZM39.0165 41.266C39.052 40.9852 38.8214 40.949 38.5641 40.949C38.329 40.949 38.1161 40.9852 38.0791 41.266L37.9165 42.5149C37.8795 42.7913 38.1116 42.8275 38.3645 42.8275C38.604 42.8275 38.8169 42.7913 38.8539 42.5149L39.0165 41.266Z"
        fill="#83CE00"></path>
    <path
        d="M42.3137 42.7494C42.2457 43.2718 41.8346 43.4672 41.1634 43.4672C40.8736 43.4672 40.498 43.4498 40.1535 43.4006C40.1535 43.2269 40.1846 42.9462 40.2349 42.7725C40.6148 42.8174 40.9179 42.8391 41.1767 42.8391C41.3807 42.8391 41.5434 42.8174 41.5611 42.6437L41.5744 42.4917C41.5922 42.3268 41.5611 42.3137 41.2891 42.224L40.6829 42.0229C40.4788 41.9563 40.3428 41.8087 40.4019 41.3586L40.4433 41.0373C40.5069 40.5062 40.9549 40.3195 41.6025 40.3195C41.9189 40.3195 42.1954 40.3368 42.571 40.4179C42.5754 40.5872 42.5444 40.8549 42.4897 41.0243C42.123 40.962 41.879 40.9447 41.5981 40.9447C41.3719 40.9447 41.2225 40.9577 41.1944 41.1415L41.1767 41.266C41.1545 41.4092 41.2033 41.4309 41.4709 41.525L42.0816 41.7349C42.2945 41.8101 42.4128 41.9447 42.3581 42.3948L42.3122 42.7508L42.3137 42.7494Z"
        fill="#83CE00"></path>
    <path
        d="M46.1727 42.7494C46.1047 43.2718 45.6937 43.4672 45.0224 43.4672C44.7326 43.4672 44.3571 43.4498 44.0126 43.4006C44.0126 43.2269 44.0436 42.9462 44.0939 42.7725C44.4739 42.8174 44.777 42.8391 45.0357 42.8391C45.2398 42.8391 45.4024 42.8174 45.4201 42.6437L45.4335 42.4917C45.4512 42.3268 45.4201 42.3137 45.1481 42.224L44.5419 42.0229C44.3378 41.9563 44.2018 41.8087 44.261 41.3586L44.3024 41.0373C44.3659 40.5062 44.8139 40.3195 45.4615 40.3195C45.778 40.3195 46.0544 40.3368 46.43 40.4179C46.4344 40.5872 46.4034 40.8549 46.3487 41.0243C45.982 40.962 45.738 40.9447 45.4571 40.9447C45.2309 40.9447 45.0816 40.9577 45.0535 41.1415L45.0357 41.266C45.0135 41.4092 45.0623 41.4309 45.33 41.525L45.9406 41.7349C46.1535 41.8101 46.2718 41.9447 46.2171 42.3948L46.1712 42.7508L46.1727 42.7494Z"
        fill="#83CE00"></path>
    <path
        d="M48.5872 42.1965H47.7001L47.5463 43.4136C47.3378 43.431 46.9933 43.431 46.7715 43.4136L47.1515 40.3774C47.3733 40.36 47.7134 40.36 47.9248 40.3774L47.7799 41.5366H48.6671L48.812 40.3774C49.0293 40.36 49.3738 40.36 49.5852 40.3774L49.2052 43.4136C48.9923 43.431 48.6523 43.431 48.4305 43.4136L48.5843 42.1965H48.5872Z"
        fill="#83CE00"></path>
    <path
        d="M52.5276 42.648C52.4507 43.2631 51.9657 43.4686 51.2471 43.4686C50.4591 43.4686 49.9667 43.2631 50.0436 42.648L50.2343 41.1372C50.3112 40.5264 50.7962 40.3209 51.5103 40.3209C52.3028 40.3209 52.7907 40.5264 52.7139 41.1372L52.5276 42.648ZM51.9302 41.266C51.9657 40.9852 51.7351 40.949 51.4778 40.949C51.2427 40.949 51.0298 40.9852 50.9928 41.266L50.8302 42.5149C50.7932 42.7913 51.0254 42.8275 51.2782 42.8275C51.5177 42.8275 51.7306 42.7913 51.7676 42.5149L51.9302 41.266Z"
        fill="#83CE00"></path>
    <path
        d="M55.223 41.4252L54.463 43.4136C54.2323 43.431 53.9425 43.431 53.7119 43.4136L53.224 40.3774C53.4457 40.36 53.808 40.36 54.0165 40.3774L54.2471 42.3253L54.9302 40.3774C55.152 40.36 55.5823 40.36 55.7996 40.3774L55.9948 42.3253L56.7148 40.3774C56.9366 40.36 57.2811 40.36 57.4881 40.3774L56.2387 43.4136C56.0081 43.431 55.7227 43.431 55.4921 43.4136L55.2259 41.4252H55.223Z"
        fill="#83CE00"></path>
    <path
        d="M87.4658 41.7204L86.8995 42.5988C86.7147 42.6162 86.5506 42.6162 86.3746 42.5988L86.0257 41.7204L85.8128 43.4151C85.5999 43.4324 85.2598 43.4324 85.038 43.4151L85.418 40.3788C85.6398 40.3615 86.0154 40.3615 86.2283 40.3788L86.7443 41.7349L87.6048 40.3788C87.8222 40.3615 88.1933 40.3615 88.4062 40.3788L88.0262 43.4151C87.8133 43.4324 87.4747 43.4324 87.2529 43.4151L87.4658 41.7204Z"
        fill="#83CE00"></path>
    <path
        d="M90.5235 42.8434H89.6097L89.3746 43.4136C89.1529 43.431 88.7995 43.431 88.5777 43.4136L90.0075 40.3774C90.2337 40.36 90.5235 40.36 90.7541 40.3774L91.4239 43.4136C91.2021 43.431 90.8399 43.431 90.6181 43.4136L90.5235 42.8434ZM90.2603 41.2602L89.8537 42.2501H90.4244L90.2618 41.2602H90.2603ZM90.627 40.195C90.3786 40.2167 90.2425 40.2167 89.9882 40.195L90.559 39.4598C90.8221 39.4381 91.0705 39.4381 91.3189 39.4598L90.627 40.195Z"
        fill="#83CE00"></path>
    <path
        d="M94.0188 42.7494C93.9508 43.2718 93.5397 43.4672 92.8685 43.4672C92.5787 43.4672 92.2031 43.4498 91.8586 43.4006C91.8586 43.2269 91.8897 42.9462 91.9399 42.7725C92.3199 42.8174 92.623 42.8391 92.8818 42.8391C93.0858 42.8391 93.2484 42.8174 93.2662 42.6437L93.2795 42.4917C93.2972 42.3268 93.2662 42.3137 92.9941 42.224L92.3879 42.0229C92.1839 41.9563 92.0479 41.8087 92.107 41.3586L92.1484 41.0373C92.212 40.5062 92.66 40.3195 93.3076 40.3195C93.624 40.3195 93.9005 40.3368 94.276 40.4179C94.2805 40.5872 94.2494 40.8549 94.1947 41.0243C93.8281 40.962 93.5841 40.9447 93.3032 40.9447C93.0769 40.9447 92.9276 40.9577 92.8995 41.1415L92.8818 41.266C92.8596 41.4092 92.9084 41.4309 93.176 41.525L93.7866 41.7349C93.9996 41.8101 94.1178 41.9447 94.0631 42.3948L94.0173 42.7508L94.0188 42.7494Z"
        fill="#83CE00"></path>
    <path
        d="M95.827 43.4151L96.2026 40.3788H98.1395C98.1395 40.5612 98.1085 40.8072 98.0626 40.9852H96.899L96.8266 41.5916H97.9443C97.9443 41.7652 97.9118 42.0156 97.8675 42.1936H96.7541L96.6772 42.8043H97.8408C97.8408 42.9824 97.8098 43.2414 97.764 43.4151H95.827Z"
        fill="#83CE00"></path>
    <path
        d="M98.2741 43.4686C98.2696 43.3036 98.311 43.0272 98.3465 42.8579H98.4648C98.7413 42.8579 98.9172 42.8217 98.9586 42.5019L99.2218 40.3788C99.4436 40.3615 99.7792 40.3615 99.9951 40.3788L99.7097 42.648C99.6329 43.2588 99.1671 43.4686 98.3924 43.4686H98.2741Z"
        fill="#83CE00"></path>
    <path
        d="M100.396 43.4151L100.771 40.3788H102.708C102.708 40.5612 102.677 40.8072 102.631 40.9852H101.468L101.395 41.5916H102.513C102.513 41.7652 102.481 42.0156 102.436 42.1936H101.323L101.246 42.8043H102.41C102.41 42.9824 102.379 43.2414 102.333 43.4151H100.396Z"
        fill="#83CE00"></path>
    <path
        d="M103.282 41.1632C103.359 40.5264 103.857 40.3209 104.59 40.3209C104.871 40.3209 105.129 40.3426 105.464 40.4005C105.469 40.5742 105.432 40.8332 105.387 41.0069C105.139 40.9664 104.926 40.949 104.7 40.949C104.342 40.949 104.079 40.9664 104.035 41.3152L103.894 42.457C103.853 42.8043 104.129 42.8275 104.496 42.8275C104.695 42.8275 104.966 42.7826 105.179 42.7421C105.201 42.9245 105.192 43.1387 105.166 43.3398C104.845 43.4295 104.546 43.4686 104.329 43.4686C103.527 43.4686 103.02 43.2631 103.102 42.6263L103.283 41.1647L103.282 41.1632Z"
        fill="#83CE00"></path>
    <path
        d="M107.905 40.3774C108.095 40.36 108.525 40.36 108.67 40.3774L108.384 42.6466C108.308 43.2573 107.833 43.4672 107.126 43.4672C106.338 43.4672 105.85 43.2573 105.927 42.6466L106.212 40.3774C106.408 40.36 106.796 40.36 106.987 40.3774L106.724 42.5135C106.689 42.7899 106.906 42.8261 107.163 42.8261C107.403 42.8261 107.607 42.7899 107.644 42.5135L107.907 40.3774H107.905Z"
        fill="#83CE00"></path>
    <path
        d="M109.294 41.1632C109.371 40.5264 109.869 40.3209 110.602 40.3209C110.883 40.3209 111.14 40.3426 111.476 40.4005C111.481 40.5742 111.444 40.8332 111.399 41.0069C111.151 40.9664 110.938 40.949 110.712 40.949C110.354 40.949 110.091 40.9664 110.046 41.3152L109.906 42.457C109.864 42.8043 110.141 42.8275 110.508 42.8275C110.707 42.8275 110.978 42.7826 111.191 42.7421C111.213 42.9245 111.204 43.1387 111.177 43.3398C110.857 43.4295 110.558 43.4686 110.341 43.4686C109.539 43.4686 109.032 43.2631 109.113 42.6263L109.295 41.1647L109.294 41.1632Z"
        fill="#83CE00"></path>
    <path
        d="M112.233 40.3774C112.459 40.36 112.795 40.36 113.006 40.3774L112.626 43.4136C112.413 43.431 112.079 43.431 111.852 43.4136L112.232 40.3774H112.233Z"
        fill="#83CE00"></path>
    <path
        d="M115.953 42.6481C115.876 43.2631 115.391 43.4686 114.673 43.4686C113.885 43.4686 113.392 43.2631 113.469 42.6481L113.66 41.1372C113.737 40.5264 114.222 40.3209 114.936 40.3209C115.728 40.3209 116.216 40.5264 116.139 41.1372L115.953 42.6481ZM115.356 41.266C115.391 40.9852 115.161 40.949 114.903 40.949C114.668 40.949 114.455 40.9852 114.418 41.266L114.256 42.5149C114.219 42.7913 114.451 42.8275 114.704 42.8275C114.943 42.8275 115.156 42.7913 115.193 42.5149L115.356 41.266ZM115.202 40.195C114.954 40.2167 114.818 40.2167 114.563 40.195L115.134 39.4598C115.397 39.4381 115.646 39.4381 115.894 39.4598L115.202 40.195Z"
        fill="#83CE00"></path>
    <path
        d="M117.59 41.6799L117.373 43.4151C117.133 43.4411 116.843 43.4411 116.598 43.4151L116.978 40.3788C117.25 40.3615 117.549 40.3615 117.81 40.3788L118.476 42.1531L118.697 40.3788C118.974 40.3615 119.222 40.3615 119.471 40.3788L119.091 43.4151C118.805 43.4324 118.529 43.4324 118.243 43.4151L117.587 41.6799H117.59Z"
        fill="#83CE00"></path>
    <path fill-rule="evenodd" clip-rule="evenodd"
        d="M8.53908 21.7213H6.17339C4.30745 21.6649 0.0462563 21.5534 0.000421064 21.6779C-0.0365428 21.7922 2.36907 23.073 3.71899 23.7807L0.971832 34.7303C2.04674 34.8273 3.58887 34.8099 4.60908 34.7303L5.62041 30.6955H6.87127C10.1581 30.6955 12.4277 29.8141 13.0354 27.3191L13.5839 25.1107C14.2315 22.5766 12.1808 21.7228 8.53908 21.7228M9.75149 25.8531L9.57554 26.6144C9.31088 27.6621 8.43854 27.7982 7.4272 27.7982H6.35229L7.13889 24.6519H8.01567C9.12163 24.6519 9.99841 24.8227 9.75149 25.8531Z"
        fill="white"></path>
    <path fill-rule="evenodd" clip-rule="evenodd"
        d="M16.13 21.7199L12.8624 34.7318C13.9033 34.8085 15.4794 34.8085 16.5011 34.7318L19.7687 21.7199C18.7662 21.6432 17.1901 21.6432 16.1285 21.7199"
        fill="white"></path>
    <path fill-rule="evenodd" clip-rule="evenodd"
        d="M31.5838 21.7199H20.9767C20.6573 22.5578 20.3557 23.7199 20.2507 24.5579H23.7342L21.194 34.7318C22.2349 34.8085 23.8111 34.8085 24.8328 34.7318L27.3744 24.5579H30.8579C31.158 23.7199 31.4596 22.5578 31.5838 21.7199Z"
        fill="white"></path>
    <path fill-rule="evenodd" clip-rule="evenodd"
        d="M33.9037 30.5406L35.0821 25.7967C35.4266 24.4435 36.4823 24.4059 37.9816 24.4059C38.916 24.4059 39.8209 24.4812 40.8692 24.6534C41.1871 23.8343 41.4931 22.6331 41.5951 21.8139C40.1269 21.5665 39.0298 21.4709 37.8233 21.4709C34.6119 21.4709 32.3039 22.3465 31.6282 25.0904L30.0654 31.3395C29.3704 34.0834 31.4996 34.959 35.0407 34.959C35.9352 34.959 37.2615 34.7882 38.7282 34.425C38.9648 33.4727 39.1452 32.5016 39.157 31.6246C38.2211 31.7968 36.9924 31.9676 36.2147 31.9676C34.6962 31.9676 33.5755 31.9112 33.9022 30.5392"
        fill="white"></path>
    <path fill-rule="evenodd" clip-rule="evenodd"
        d="M50.6986 21.7199L49.4877 26.5594H46.0426L47.2536 21.7199C46.2703 21.6432 44.6557 21.6432 43.6134 21.7199L40.3458 34.7318C41.3674 34.8085 42.982 34.8085 43.986 34.7318L45.2664 29.6448H48.7114L47.431 34.7318C48.4527 34.8085 50.0687 34.8085 51.0712 34.7318L54.3388 21.7199C53.3556 21.6432 51.741 21.6432 50.7001 21.7199"
        fill="white"></path>
    <path
        d="M72.7956 4.97553L82.5732 8.63409C82.9458 8.77302 83.0819 9.226 82.8394 9.53715C82.6634 9.76147 82.4712 9.97421 82.2657 10.171C82.0957 10.3346 81.8443 10.3852 81.6225 10.2998L72.352 6.73968C72.1346 6.65574 71.9823 6.45603 71.9705 6.22737C71.9661 6.1304 71.9631 6.03344 71.9631 5.93503C71.9631 5.78018 71.969 5.62822 71.9809 5.47771C72.0119 5.08696 72.4215 4.83515 72.7956 4.97553Z"
        fill="#0595F0"></path>
    <path
        d="M84.0858 5.93503C84.0858 6.51536 84 7.07399 83.8418 7.60367H83.8389L72.6019 3.28518C73.594 1.33867 75.6492 0 78.0237 0C81.3727 0 84.0843 2.65853 84.0843 5.93503"
        fill="#0595F0"></path>
    <path
        d="M69.2929 10.2144L54.8917 29.8242L63.4141 24.7373L55.1076 31.7808L55.9208 37.8881L71.9631 35.697L66.6004 56L80.4811 30.6679L73.869 32.3134L75.1405 28.1599L62.4294 33.0081L80.4855 11.569L72.0031 8.27518L70.9695 7.89166L69.2929 10.2144Z"
        fill="url(#paint0_linear_14_57)"></path>
    <path
        d="M86.3258 6.20276L93.6875 3.80183L86.3258 26.937L92.6555 26.0528L89.4263 33.8287L84.5175 34.7129L81.6107 37.5567L83.8418 37.1138L73.6679 48.1141L83.6777 28.1585L76.9887 29.7822L80.8359 18.6561L80.966 22.3855L86.3258 6.20276Z"
        fill="white"></path>
    <defs>
        <linearGradient id="paint0_linear_14_57" x1="68.6526" y1="26.6042" x2="72.7856" y2="32.9394"
            gradientUnits="userSpaceOnUse">
            <stop stop-color="#0595F0"></stop>
            <stop offset="0.18" stop-color="#0595F0"></stop>
            <stop offset="0.62" stop-color="#83CE00"></stop>
            <stop offset="1" stop-color="#83CE00"></stop>
        </linearGradient>
    </defs>
</svg>